<svg width="24" height="26" viewBox="0 0 24 26" fill="none" xmlns="http://www.w3.org/2000/svg">
<path d="M23.6953 0.696927C23.5604 0.557227 23.3899 0.460504 23.2039 0.41813C23.0179 0.375757 22.8241 0.389494 22.6453 0.457727L0.645352 8.77773C0.45562 8.85257 0.292272 8.98567 0.177003 9.15936C0.0617345 9.33304 0 9.53909 0 9.75013C0 9.96116 0.0617345 10.1672 0.177003 10.3409C0.292272 10.5146 0.45562 10.6477 0.645352 10.7225L10.2454 14.7161L14.0854 24.7001C14.1575 24.8888 14.2812 25.0513 14.4411 25.1678C14.601 25.2842 14.7902 25.3494 14.9853 25.3553C15.1874 25.351 15.3835 25.2831 15.5478 25.1606C15.712 25.038 15.8367 24.8666 15.9053 24.6689L23.9053 1.78893C23.9735 1.60493 23.9899 1.40457 23.9527 1.21123C23.9156 1.01789 23.8263 0.839521 23.6953 0.696927ZM14.9853 21.4033L12.1953 14.1233L16.9853 9.14173L15.5753 7.67533L10.7454 12.6985L3.78535 9.75533L21.3153 3.17213L14.9853 21.4033Z" fill="#8EC2F2"/>
</svg>
